HIERARCHY
ROOT hip
{
	OFFSET 0.000000 0.000000 0.000000 
	CHANNELS 6 Xposition Yposition Zposition Xrotation Zrotation Yrotation
	JOINT abdomen
	{
		OFFSET 0.000000 3.402643 0.000000 
		CHANNELS 3 Xrotation Zrotation Yrotation
		JOINT chest
		{
			OFFSET 0.000000 8.438565 -0.680529 
			CHANNELS 3 Xrotation Zrotation Yrotation
			JOINT neck
			{
				OFFSET 0.000000 10.207942 -0.272212 
				CHANNELS 3 Xrotation Zrotation Yrotation
				JOINT head
				{
					OFFSET 0.000000 3.130431 0.000000 
					CHANNELS 3 Xrotation Zrotation Yrotation
					End Site
					{
						OFFSET 0.000000 3.130435 0.000000 
					}
				}
			}
			JOINT lCollar
			{
				OFFSET 3.470700 6.669187 -0.816635 
				CHANNELS 3 Yrotation Zrotation Xrotation
				JOINT lShldr
				{
					OFFSET 3.198488 0.000000 0.000000 
					CHANNELS 3 Zrotation Yrotation Xrotation
					JOINT lForeArm
					{
						OFFSET 10.139888 0.000000 0.000000 
						CHANNELS 3 Yrotation Zrotation Xrotation
						JOINT lHand
						{
							OFFSET 8.370511 0.000000 0.000000 
							CHANNELS 3 Zrotation Yrotation Xrotation
							End Site
							{
								OFFSET 4.083176 0.000000 0.000000 
							}
						}
					}
				}
			}
			JOINT rCollar
			{
				OFFSET -3.470700 6.669187 -0.816635 
				CHANNELS 3 Yrotation Zrotation Xrotation
				JOINT rShldr
				{
					OFFSET -3.198488 0.000000 0.000000 
					CHANNELS 3 Zrotation Yrotation Xrotation
					JOINT rForeArm
					{
						OFFSET -10.139888 0.000000 0.000000 
						CHANNELS 3 Yrotation Zrotation Xrotation
						JOINT rHand
						{
							OFFSET -8.370511 0.000000 0.000000 
							CHANNELS 3 Zrotation Yrotation Xrotation
							End Site
							{
								OFFSET -4.083176 0.000000 0.000000 
							}
						}
					}
				}
			}
		}
	}
	JOINT lThigh
	{
		OFFSET 5.308129 -1.633274 1.361059 
		CHANNELS 3 Xrotation Zrotation Yrotation
		JOINT lShin
		{
			OFFSET -2.041588 -20.007561 0.000000 
			CHANNELS 3 Xrotation Zrotation Yrotation
			JOINT lFoot
			{
				OFFSET 0.000000 -19.190928 -1.224953 
				CHANNELS 3 Xrotation Yrotation Zrotation
				End Site
				{
					OFFSET 0.000000 -2.449906 4.627600 
				}
			}
		}
	}
	JOINT rThigh
	{
		OFFSET -5.308129 -1.633274 1.361059 
		CHANNELS 3 Xrotation Zrotation Yrotation
		JOINT rShin
		{
			OFFSET 2.041588 -20.007561 0.000000 
			CHANNELS 3 Xrotation Zrotation Yrotation
			JOINT rFoot
			{
				OFFSET 0.000000 -19.190928 -1.224953 
				CHANNELS 3 Xrotation Yrotation Zrotation
				End Site
				{
					OFFSET 0.000000 -2.449906 4.627600 
				}
			}
		}
	}
}
MOTION
Frames: 6
Frame Time: 0.011111
41.584553 53.302795 9.816130 1.134588 6.671081 -100.020393 23.289673 -2.165814 1.381054 -21.334763 5.334763 0.962523 -12.779526 0.485128 3.945283 17.031809 11.092546 9.926645 9.969777 -14.785672 3.853935 -64.751137 -35.921024 21.344618 -50.685139 7.853234 8.430555 8.524705 12.647240 -56.214245 -4.049711 8.641859 2.072876 56.443527 18.289337 -10.532846 63.717945 -9.458077 14.097827 -8.534408 -12.637552 62.220558 -4.167561 13.880425 -0.763737 23.943275 -5.635280 -4.067519 -24.154367 2.180341 -1.400008 -7.850743 -11.384649 -8.448874 23.320313 5.644524 3.955723 -19.177860 -5.829144 0.892086 
41.619324 53.301857 9.713692 1.410272 6.876198 -99.663864 23.301134 -1.709147 1.449862 -21.422298 5.520725 0.919051 -12.898420 0.364164 3.952653 17.283382 10.852329 9.885262 9.969777 -14.785672 3.853935 -65.236122 -35.604897 22.639652 -51.071480 7.932859 8.582398 8.524705 12.647240 -55.003307 -4.049711 8.641859 2.072876 56.543213 17.748714 -10.169334 63.983257 -9.458938 14.221328 -8.534408 -12.637552 62.796730 -4.656897 14.323644 -1.035005 24.098051 -5.611385 -4.106099 -24.226894 2.292457 -1.360639 -7.291848 -11.517367 -3.817533 22.465355 5.695980 3.809965 -24.147726 -2.481542 1.308091 
41.637493 53.259254 9.618773 1.363440 7.016476 -99.475685 23.215822 -1.734541 1.435650 -21.303663 5.743338 0.923493 -13.054442 0.212670 3.990973 17.546494 11.016198 9.978870 9.969777 -14.785672 3.853935 -65.597191 -35.580212 22.519386 -50.779873 7.876847 8.468596 8.524705 12.647240 -55.940800 -4.049711 8.641859 2.072876 56.806694 17.359119 -9.886643 64.293938 -9.465471 14.367906 -8.534408 -12.637552 63.333843 -4.967813 14.436087 -1.030201 24.208340 -5.616014 -4.087510 -24.187349 2.108110 -1.446281 -7.626648 -11.034406 -6.530783 22.367510 5.682244 3.808434 -20.893717 -5.694394 0.646424 
41.662239 53.236385 9.529180 1.366099 7.154979 -99.610153 23.188759 -1.771468 1.689685 -21.215639 5.665805 1.002875 -13.186774 0.254857 3.922228 17.644341 11.201434 9.887124 9.969777 -14.785672 3.853935 -65.678864 -35.570133 22.378496 -50.590424 7.829433 8.391289 8.524705 12.647240 -56.985729 -4.049711 8.641859 2.072876 57.252499 17.364122 -9.583801 64.217796 -9.461349 14.331817 -8.534408 -12.637552 64.115097 -4.977242 14.621465 -0.701412 23.927614 -5.610763 -4.091077 -24.057528 1.947547 -1.528944 -7.887825 -10.737083 -7.044032 22.377272 5.682263 3.819035 -19.816687 -6.736244 0.497143 
41.686989 53.298409 9.423923 1.583218 7.294837 -99.941925 23.240028 -1.717717 2.243640 -21.186628 5.552042 1.145756 -13.172523 0.211488 3.870742 17.434792 11.646477 9.805265 9.969777 -14.785672 3.853935 -65.672272 -35.590706 22.748892 -50.549549 7.825483 8.379515 8.524705 12.647240 -57.298225 -4.049711 8.641859 2.072876 57.700405 17.427523 -9.278148 63.993977 -9.458826 14.222210 -8.534408 -12.637552 64.827980 -4.986433 15.020100 -0.338926 23.765371 -5.621100 -4.058719 -23.987513 1.986857 -1.527224 -8.160169 -10.277006 -6.439963 22.520504 5.671936 3.840089 -19.867870 -7.147882 0.383341 
41.699833 53.432800 9.309582 1.687519 7.276744 -100.091789 23.400658 -1.745828 2.487718 -21.205669 5.681300 1.208552 -12.893508 0.182923 3.822720 16.932581 11.612541 9.673712 9.969777 -14.785672 3.853935 -65.882393 -35.485703 23.633379 -50.590424 7.829433 8.391289 8.524705 12.647240 -56.448620 -4.049711 8.641859 2.072876 58.081108 17.278042 -8.987883 63.899452 -9.461499 14.183983 -8.534408 -12.637552 65.013535 -4.802388 15.238673 -0.154927 23.472582 -5.630778 -4.014808 -23.747334 2.111381 -1.507726 -8.359327 -9.980345 -5.869087 22.643425 5.663253 3.849051 -19.916977 -7.699764 0.185202 
